<?xml version="1.0" encoding="utf-8"?>
<!-- Generator: Adobe Illustrator 22.1.0, SVG Export Plug-In . SVG Version: 6.00 Build 0)  -->
<svg version="1.1" id="图层_1" xmlns="http://www.w3.org/2000/svg" xmlns:xlink="http://www.w3.org/1999/xlink" x="0px" y="0px"
	 viewBox="0 0 91.6 77.2" style="enable-background:new 0 0 91.6 77.2;" xml:space="preserve">
<style type="text/css">
	.st0{fill:#FFFFFF;}
</style>
<title>资源 1</title>
<g id="图层_2_1_">
	<g id="图层_1-2">
		<path class="st0" d="M15.9,25.8c0-0.6-0.1-1.2-0.1-1.8C15.8,10.8,26.6,0,39.9,0c10.4,0,19.6,6.7,22.9,16.5c0.2,0.7,0.4,1.3,0.6,2
			c0.3,2.1-1.1,4-3.1,4.4c-1.9,0.3-3.7-0.8-4.2-2.6c-0.1-0.5-0.2-0.9-0.4-1.4C52.8,10.2,43.4,5.6,34.8,8.4
			C28,10.6,23.5,17,23.5,24.1c0,0.4,0,0.8,0,1.2c0.2,2.1-1.4,3.9-3.5,4.1h-0.3C17.7,29.3,16.1,27.8,15.9,25.8z M67.5,29.1
			c-6.8,0-13.2,2.9-17.8,7.9c-1.5,1.4-1.6,3.8-0.2,5.4c1.4,1.5,3.8,1.6,5.4,0.2c0.1-0.1,0.3-0.3,0.4-0.5c6.2-6.7,16.6-7.2,23.3-1
			s7.2,16.6,1,23.3c-3.1,3.4-7.5,5.3-12.1,5.3c-6.5,0-10-2.9-13.5-5.7l-0.2-0.2c-2-1.6-6.2-6.4-10.2-11.1
			c-6.2-7.2-10.5-12-13.1-13.8c-3.5-2.7-7.8-4.1-12.2-4C8.2,34.9,0,43.1,0,53.1s8.2,18.2,18.3,18.2c4.8,0,9.4-1.9,12.8-5.3
			c1.5-1.5,1.5-3.9,0-5.4s-3.9-1.5-5.4,0l0,0c-2,2-4.7,3.1-7.5,3.1c-5.9,0-10.6-4.8-10.6-10.6c0-5.9,4.8-10.6,10.6-10.6
			c2.8,0,4.7,0.4,7.9,2.6c2,1.4,7.4,7.6,11.7,12.5c4.7,5.3,8.7,10,11.1,12l0.2,0.2c3.8,3.1,9.1,7.4,18.3,7.4
			c13.3,0,24.1-10.8,24.1-24.1S80.8,29.1,67.5,29.1L67.5,29.1z M36.5,22.4c0,2.1,1.7,3.8,3.8,3.8c2.1,0,3.8-1.7,3.8-3.8
			s-1.7-3.8-3.8-3.8l0,0C38.2,18.6,36.5,20.3,36.5,22.4C36.5,22.3,36.5,22.4,36.5,22.4L36.5,22.4z"/>
	</g>
</g>
</svg>
