<?xml version="1.0" encoding="utf-8"?>
<!-- Generator: Adobe Illustrator 21.1.0, SVG Export Plug-In . SVG Version: 6.00 Build 0)  -->
<svg version="1.1" id="图层_1" xmlns="http://www.w3.org/2000/svg" xmlns:xlink="http://www.w3.org/1999/xlink" x="0px" y="0px"
	 viewBox="0 0 50 50" style="enable-background:new 0 0 50 50;" xml:space="preserve">
<style type="text/css">
	.st0{fill:#FFFFFF;}
</style>
<polygon points="25,49 25,49 25,49 "/>
<g>
	<path class="st0" d="M33.8,37.5c-2-0.7-2.5-1.2-3.1-1.8C30.2,35,30.2,34,30.3,32c0.1-2.1,0.9-1.4,1.5-4.6c1.3-0.4,2.4-2.4,2.9-3.9
		c0.3-1.2,0-3.3-1.1-3.1c0.2-1.7,0.4-3,0.3-3.8c-0.1-1.5,0-3.7-2.7-4.9c-1.2-1.6-4.1-2.5-6.6-2.2c-5.8,0.9-8,4.2-8.3,7.1
		c-0.1,0.8,0.1,2.1,0.3,3.8c-1.1-0.2-1.5,1.4-1.4,2.7c0.1,1.3,1.2,3.8,2.6,4.3c0.2,2,1.6,3,1.8,4.3c0.2,1.2,0.1,3.5-0.4,4.1
		c-0.5,0.6-2.6,1.6-4.3,2c-3.1,0.9-3.7,0.9-6.1,1.7c0,0,0,0-0.1,0c4,4.5,9.9,7.3,16.3,7.3c6.5,0,12.3-2.8,16.3-7.2
		c-0.2-0.1-0.4-0.2-0.6-0.3C40.7,39.5,36.9,38.6,33.8,37.5z"/>
	<path class="st0" d="M25,1C11.8,1,1,11.8,1,25c0,6.2,2.3,11.8,6.2,16c4.4,4.9,10.8,8,17.8,8l0,0c7,0,13.3-3,17.7-7.8
		C46.6,36.9,49,31.2,49,25C49,11.8,38.2,1,25,1z M41.3,39.8c-4,4.4-9.8,7.2-16.3,7.2c-6.5,0-12.3-2.8-16.3-7.3C5.1,35.8,3,30.7,3,25
		C3,12.9,12.9,3,25,3s22,9.9,22,22C47,30.7,44.8,35.9,41.3,39.8z"/>
</g>
</svg>
